<svg id="_x33_0" enable-background="new 0 0 64 64" height="512" viewBox="0 0 64 64" width="512" xmlns="http://www.w3.org/2000/svg" xmlns:xlink="http://www.w3.org/1999/xlink"><linearGradient id="SVGID_1_" gradientUnits="userSpaceOnUse" x1="32" x2="32" y1="63" y2="1"><stop offset="0" stop-color="#9f2fff"/><stop offset="1" stop-color="#0bb1d3"/></linearGradient><path d="m61 31h-26c-1.103 0-2 .897-2 2v2.631c-.971-.45-2.005-.764-3.066-.896l-4.934-.618v-1.117h1.999.007c1.6 0 3.104-.622 4.234-1.753 1.135-1.133 1.76-2.642 1.76-4.247v-4.382l2-1v-.618c0-.59-.04-1.174-.098-1.756 1.901-1.046 3.098-3.026 3.098-5.244 0-1.791-.789-3.461-2.141-4.596.094-.46.141-.929.141-1.404 0-3.859-3.141-7-7-7-1.714 0-3.284.622-4.502 1.648-1.254-1.052-2.841-1.648-4.498-1.648-3.17 0-5.851 2.12-6.709 5.016-5.043 2.116-8.291 6.979-8.291 12.463 0 4.408 2.156 8.55 5.769 11.079l4.231 2.963v1.597l-4.934.617c-1.587.198-3.128.771-4.458 1.658-2.885 1.923-4.608 5.142-4.608 8.611v9.996c0 3.309 2.691 6 6 6h26c0 1.103.897 2 2 2h26c1.103 0 2-.897 2-2 0-2.206-1.794-4-4-4h-6v-4h8c1.103 0 2-.897 2-2v-18c0-1.103-.897-2-2-2zm-42.688 7.726-3.518 1.759-.607-4.251 1.452-.182zm6.049-2.673 1.452.182-.607 4.251-3.518-1.759zm5.759-8.326c-1.467-.244-2.606-1.309-2.985-2.681l3.865.006v1.948c0 .292-.037.578-.098.857zm.88-6.345v1.67l-6-.01v1.002c0 2.815 2.016 5.193 4.792 5.655l.128.021c-.033.036-.058.078-.092.112-.755.754-1.757 1.168-2.823 1.168-.002 0-.004 0-.005 0h-6v2h2v1.586l-3 3-3-3v-8.086l-3.066-2.3c-.585-.438-.934-1.137-.934-1.867 0-1.286 1.047-2.333 2.333-2.333h1.667v-3h4.101c.465 2.279 2.484 4 4.899 4s4.434-1.721 4.899-4h1.572c.294 1.102.472 2.235.517 3.388zm-.696-9.123.09.136c.552.827 1.013 1.701 1.393 2.605h-.889c-.185-.908-.628-1.717-1.234-2.374.226-.104.44-.225.64-.367zm-1.304 3.741c0 1.654-1.346 3-3 3s-3-1.346-3-3 1.346-3 3-3 3 1.346 3 3zm-7.899-1h-4.101c0-1.103.897-2 2-2h3.026c-.443.584-.773 1.257-.925 2zm-9.186 12.92c-3.077-2.154-4.915-5.684-4.915-9.441 0-4.286 2.331-8.125 6.03-10.123.014.271.022.544.067.809l1.973-.332c-.047-.271-.07-.553-.07-.833 0-2.757 2.243-5 5-5 1.163 0 2.278.412 3.166 1.14-.735 1.108-1.166 2.434-1.166 3.86 0 .392.032.783.097 1.166l1.973-.332c-.047-.272-.07-.554-.07-.834 0-2.757 2.243-5 5-5s5 2.243 5 5c0 .515-.077 1.021-.23 1.505l-.229.724.637.415c1.14.743 1.822 1.998 1.822 3.356 0 1.221-.544 2.334-1.446 3.078-.471-2.054-1.31-4.013-2.496-5.793l-.424-.636c.23-.504.366-1.06.366-1.649 0-2.206-1.794-4-4-4v2c1.103 0 2 .897 2 2s-.897 2-2 2h-9c-2.206 0-4 1.794-4 4v3.013c-2.234.171-4 2.043-4 4.32 0 1.356.647 2.652 1.733 3.467l2.267 1.7v2.579zm-8.915 27.08v-9.996c0-2.799 1.39-5.396 3.718-6.947 1.073-.716 2.316-1.178 3.597-1.338l1.887-.236 1.005 7.032 5.793-2.897v12.382h-8v-7.236l-1.105-2.211-1.789.895.894 1.788v7.346l-1.703 1.686 1.406 1.422 1.708-1.69h14.589v4h-18c-2.206 0-4-1.794-4-4zm24 4v-4h1c2.415 0 4.435 1.721 4.899 4zm1-6h-7v-12.382l5.794 2.896 1.005-7.032 1.887.236c1.171.146 2.304.556 3.314 1.172v13.11c0 1.103.897 2 2 2h8v4h-6c-.887 0-1.699.3-2.363.79-.929-2.779-3.55-4.79-6.637-4.79zm33.002 8h-26.002c0-1.103.897-2 2-2h22c1.103 0 2 .897 2.002 2zm-16.002-4v-10h6v10zm16-6h-8v-4c0-1.103-.897-2-2-2h-6c-1.103 0-2 .897-2 2v4h-8v-18h26zm-38-2h2v2h-2zm0-4h2v2h-2zm34-16h6v-8h-6zm2-6h2v4h-2zm-6-2h2v8h-2zm-8 8h6v-8h-6zm2-6h2v4h-2zm-6-2h2v8h-2zm20-10h2v8h-2zm-2 0h-6v8h6zm-2 6h-2v-4h2zm-6 2h-2v-8h2zm-10 0h6v-8h-6zm2-6h2v4h-2zm-6 16v-8h2v8z" fill="url(#SVGID_1_)"/></svg>